<?xml version="1.0" encoding="utf-8"?>
<svg viewBox="0 0 20.019 20.009" xmlns="http://www.w3.org/2000/svg">
  <path fill-rule="evenodd" clip-rule="evenodd" d="M 10.005 20.008 C 4.485 20.008 0.005 15.538 0.005 10.008 C 0.005 4.488 4.485 0.008 10.005 0.008 C 15.535 0.008 20.005 4.488 20.005 10.008 C 20.005 15.538 15.535 20.008 10.005 20.008 Z M 13.195 13.718 C 13.315 13.788 13.445 13.828 13.585 13.828 C 13.835 13.828 14.085 13.698 14.225 13.458 C 14.435 13.108 14.325 12.648 13.965 12.428 L 10.405 10.308 L 10.405 5.688 C 10.405 5.268 10.065 4.938 9.655 4.938 C 9.245 4.938 8.905 5.268 8.905 5.688 L 8.905 10.738 C 8.905 10.998 9.045 11.238 9.275 11.378 L 13.195 13.718 Z" fill="#F2F2F2"/>
</svg>