<?xml version="1.0" encoding="utf-8"?>
<svg viewBox="0 0 20.019 20.009" xmlns="http://www.w3.org/2000/svg">
  <path fill-rule="evenodd" clip-rule="evenodd" d="M 9.999 -0.005 C 4.476 -0.005 -0.001 4.472 -0.001 9.995 C -0.001 15.518 4.476 19.995 9.999 19.995 C 15.523 19.995 19.999 15.518 19.999 9.995 C 19.999 4.472 15.523 -0.005 9.999 -0.005 Z M 9.999 1.495 C 14.694 1.495 18.499 5.3 18.499 9.995 C 18.499 14.69 14.694 18.495 9.999 18.495 C 5.305 18.495 1.499 14.69 1.499 9.995 C 1.499 5.3 5.305 1.495 9.999 1.495 Z M 10.404 5.74 C 10.354 5.374 10.041 5.092 9.661 5.092 C 9.247 5.092 8.911 5.427 8.911 5.842 L 8.911 10.689 L 8.919 10.8 C 8.952 11.02 9.082 11.217 9.277 11.333 L 13.047 13.582 L 13.138 13.628 C 13.477 13.773 13.881 13.648 14.075 13.322 L 14.121 13.231 C 14.266 12.891 14.141 12.488 13.815 12.294 L 10.411 10.262 L 10.411 5.842 L 10.404 5.74 Z" fill="#A6A6A6"/>
</svg>