<?xml version="1.0" encoding="utf-8"?>
<svg viewBox="0 0 20.019 20.009" xmlns="http://www.w3.org/2000/svg">
  <path fill-rule="evenodd" clip-rule="evenodd" d="M 5.82 0.012 L 14.201 0.012 C 17.29 0.012 19.01 1.792 19.01 4.842 L 19.01 15.172 C 19.01 18.272 17.29 20.012 14.201 20.012 L 5.82 20.012 C 2.78 20.012 1.01 18.272 1.01 15.172 L 1.01 4.842 C 1.01 1.792 2.78 0.012 5.82 0.012 Z M 6.09 4.672 L 6.09 4.662 L 9.079 4.662 C 9.51 4.662 9.86 5.012 9.86 5.441 C 9.86 5.882 9.51 6.232 9.079 6.232 L 6.09 6.232 C 5.659 6.232 5.31 5.882 5.31 5.452 C 5.31 5.022 5.659 4.672 6.09 4.672 Z M 6.09 10.752 L 13.93 10.752 C 14.36 10.752 14.71 10.402 14.71 9.972 C 14.71 9.542 14.36 9.191 13.93 9.191 L 6.09 9.191 C 5.659 9.191 5.31 9.542 5.31 9.972 C 5.31 10.402 5.659 10.752 6.09 10.752 Z M 6.09 15.322 L 13.93 15.322 C 14.329 15.282 14.63 14.941 14.63 14.542 C 14.63 14.132 14.329 13.792 13.93 13.752 L 6.09 13.752 C 5.79 13.722 5.5 13.862 5.34 14.122 C 5.18 14.372 5.18 14.702 5.34 14.962 C 5.5 15.212 5.79 15.362 6.09 15.322 Z" fill="#F2F2F2"/>
</svg>