<?xml version="1.0" encoding="utf-8"?>
<svg viewBox="0 0 20.019 20.009" xmlns="http://www.w3.org/2000/svg">
  <path fill-rule="evenodd" clip-rule="evenodd" d="M 6.172 20.02 C 5.76 20.02 5.369 19.988 5.001 19.925 L 4.783 19.884 C 2.412 19.391 1.034 17.575 1.034 14.811 L 1.034 5.229 C 1.034 4.895 1.054 4.575 1.094 4.269 C 1.443 1.584 3.288 0.02 6.172 0.02 L 13.897 0.02 C 17.093 0.02 19.004 1.94 19.034 5.152 L 19.034 5.229 L 19.034 14.811 C 19.034 18.068 17.118 20.02 13.897 20.02 L 6.172 20.02 Z M 6.172 1.477 C 3.716 1.477 2.471 2.74 2.471 5.229 L 2.471 14.811 C 2.471 17.3 3.716 18.563 6.172 18.563 L 13.888 18.563 C 16.343 18.563 17.58 17.3 17.58 14.811 L 17.58 5.229 C 17.58 2.74 16.343 1.477 13.888 1.477 L 6.172 1.477 Z M 14.34 14.254 C 14.34 13.854 14.021 13.53 13.627 13.53 L 6.416 13.53 C 6.022 13.53 5.702 13.854 5.702 14.254 C 5.702 14.654 6.022 14.978 6.416 14.978 L 13.627 14.978 C 14.021 14.978 14.34 14.654 14.34 14.254 Z M 13.627 9.291 C 13.902 9.261 14.171 9.393 14.318 9.63 C 14.465 9.869 14.465 10.171 14.318 10.41 C 14.171 10.647 13.902 10.779 13.627 10.749 L 6.416 10.749 C 6.05 10.707 5.773 10.394 5.773 10.02 C 5.773 9.646 6.05 9.332 6.416 9.291 L 13.627 9.291 Z M 9.811 5.791 C 9.811 5.417 9.534 5.103 9.168 5.062 L 6.425 5.062 C 6.058 5.103 5.781 5.417 5.781 5.791 C 5.781 6.164 6.058 6.478 6.425 6.519 L 9.168 6.519 C 9.534 6.478 9.811 6.164 9.811 5.791 Z" fill="#A6A6A6"/>
</svg>